Coordinates
version=1
nRows=10
nColumns=33
inDegrees=yes

Units are S.I. units (second, meters, Newtons, ...)
Angles are in degrees.

endheader
time	ground_thorax_rot_x	ground_thorax_rot_y	ground_thorax_rot_z	ground_thorax_tx	ground_thorax_ty	ground_thorax_tz	clav_prot_r	clav_elev_r	scapula_abduction_r	scapula_elevation_r	scapula_upward_rot_r	scapula_winging_r	shoulder_elv_r	plane_of_elev_r	axial_rot_r	elbow_flexion_r	pro_sup_r	wrist_flex_r	wrist_dev_r	clav_prot_l	clav_elev_l	scapula_abduction_l	scapula_elevation_l	scapula_upward_rot_l	scapula_winging_l	shoulder_elv_l	plane_of_elev_l	axial_rot_l	elbow_flexion_l	pro_sup_l	wrist_flex_l	wrist_dev_l
      8.39000000	    -34.25322564	    -23.47074314	     28.61031210	    -90.24666257	    849.74310922	    -46.41761982	     26.11859222	    -45.00000000	     38.55355172	    -45.00000000	    -45.00000000	   2412.48958028	   -642.59395860	     20.50729210	   -142.92206280	   1798.75983190	    171.88520701	     18.35102523	     12.76328209	     -1.35036505	     32.47262483	    -30.70326743	    -45.00000000	    -45.00000000	   4407.18360476	  -4243.19598405	     26.92266622	     48.08313263	   1789.63420287	   -320.52768299	     12.03083507	    -22.07709371
      8.40000000	    -34.20216761	    -23.73516961	     28.78567304	    -89.51739637	    849.40542853	    -46.35145899	     26.25318094	    -45.00000000	     38.73374227	    -45.00000000	    -45.00000000	   2412.36800999	   -642.65870526	     20.50699466	   -143.20265904	   1798.83644348	    171.76347887	     18.42946010	     12.99100950	     -1.06140131	     32.58147752	    -30.66642367	    -45.00000000	    -45.00000000	   4407.09613904	  -4243.18193429	     26.79377476	     47.86693283	   1789.58885454	   -320.51455865	     11.90417329	    -22.27274125
      8.41000000	    -34.26469395	    -23.89850601	     28.73359641	    -88.69145897	    849.08019679	    -46.29017477	     26.28760425	    -45.00000000	     38.81628194	    -45.00000000	    -45.00000000	   2412.49371500	   -642.68946583	     20.45153649	   -143.22226368	   1798.76275949	    171.64511931	     18.34579685	     12.88914188	     -1.37721534	     32.46083313	    -30.65992262	    -45.00000000	    -45.00000000	   4407.16209996	  -4243.23942095	     26.87704572	     47.94938017	   1789.67775904	   -320.48625126	     11.87076371	    -22.20004307
      8.42000000	    -34.21066025	    -24.14654074	     28.86483565	    -87.77487484	    848.78496736	    -46.24976646	     26.42004078	    -45.00000000	     38.94718156	    -45.00000000	    -45.00000000	   2412.40031214	   -642.73597063	     20.52426692	   -143.35066959	   1798.79050201	    171.48426785	     18.40651829	     13.06016902	     -1.29525563	     32.52117461	    -30.56659043	    -45.00000000	    -45.00000000	   4407.01015710	  -4243.10450019	     26.81008131	     48.11430020	   1789.57571631	   -320.50087881	     11.82873113	    -22.33939900
      8.43000000	    -34.15797071	    -24.44288518	     28.94938349	    -86.76086129	    848.53557607	    -46.23409849	     26.55044413	    -45.00000000	     39.12333428	    -45.00000000	    -45.00000000	   2412.48570443	   -642.76731297	     20.46742139	   -143.47287599	   1798.76165956	    171.29927656	     18.34425647	     13.01347919	     -1.58269712	     32.41503086	    -30.37829238	    -45.00000000	    -45.00000000	   4406.95972955	  -4243.02526448	     26.89539261	     48.39038055	   1789.63151432	   -320.51628940	     11.82452557	    -22.29682003
      8.44000000	    -34.34584484	    -24.37732611	     28.75191942	    -85.64731900	    848.34920196	    -46.24513917	     26.61462228	    -45.00000000	     38.95152206	    -45.00000000	    -45.00000000	   2412.50579697	   -642.82306369	     20.61344701	   -143.54119724	   1798.84571243	    171.06647886	     18.31302835	     13.10413188	     -1.45093439	     32.44457964	    -30.77044042	    -45.00000000	    -45.00000000	   4407.04698477	  -4243.13322636	     26.90356665	     48.74497993	   1789.80558930	   -320.58685691	     11.80216175	    -22.40160013
      8.45000000	    -34.45338050	    -24.39745338	     28.55205619	    -84.43155677	    848.24095637	    -46.28244041	     26.59478890	    -45.00000000	     38.87446717	    -45.00000000	    -45.00000000	   2412.58988920	   -642.85263148	     20.71963615	   -143.74650916	   1798.74271352	    170.76555932	     18.32630506	     13.15932599	     -1.27324592	     32.45910068	    -30.84826105	    -45.00000000	    -45.00000000	   4407.04173310	  -4243.08874128	     27.11777537	     48.99414498	   1789.84588412	   -320.62831448	     11.82984342	    -22.42114668
      8.46000000	    -34.44558565	    -24.57943084	     28.54762159	    -83.11508315	    848.22248883	    -46.34260508	     26.67221389	    -45.00000000	     38.95845038	    -45.00000000	    -45.00000000	   2412.64121123	   -642.89626073	     20.72225168	   -143.95139759	   1798.70749851	    170.45222634	     18.32524497	     13.18743319	     -1.22963115	     32.44681380	    -30.85664686	    -45.00000000	    -45.00000000	   4407.01418773	  -4242.98101003	     27.23511092	     49.40427191	   1789.84914366	   -320.68250229	     11.88810981	    -22.44302512
      8.47000000	    -34.46618373	    -24.67499052	     28.48202562	    -81.69359174	    848.29896611	    -46.42007264	     26.41548565	    -45.00000000	     38.93186247	    -45.00000000	    -45.00000000	   2412.90548792	   -642.86975032	     20.64385315	   -144.34157933	   1798.69876814	    170.06878087	     18.31450753	     13.15842996	     -0.87399174	     32.50331126	    -31.12354997	    -45.00000000	    -45.00000000	   4407.06902738	  -4242.99958818	     27.32881133	     49.89275070	   1789.86352817	   -320.73328158	     11.96894990	    -22.46003461
      8.48000000	    -34.44577367	    -24.83804578	     28.47415248	    -80.16916465	    848.46857249	    -46.50740548	     26.36338744	    -45.00000000	     38.96646833	    -45.00000000	    -45.00000000	   2413.05435615	   -642.88151394	     20.63566904	   -144.68204891	   1798.67530289	    169.70225833	     18.29083094	     13.19772280	     -0.74868945	     32.53695974	    -31.28709797	    -45.00000000	    -45.00000000	   4407.07914117	  -4242.93494577	     27.41486506	     50.47090146	   1789.91422484	   -320.74708665	     12.05855730	    -22.46820896
